<svg xmlns="http://www.w3.org/2000/svg" xmlns:xlink="http://www.w3.org/1999/xlink" width="113px" height="45px" viewBox="0 0 160 45"><defs><linearGradient id="linear0" gradientUnits="userSpaceOnUse" x1="49.918098" y1="26.0144" x2="117.6388" y2="162.6761" gradientTransform="matrix(0.260636,0,0,0.261799,0.400912,0.450301)"><stop offset="0.00256587" style="stop-color:rgb(82.745098%,14.509804%,41.960784%);stop-opacity:1;"></stop><stop offset="0.1272" style="stop-color:rgb(69.803922%,16.078431%,44.705882%);stop-opacity:1;"></stop><stop offset="0.3065" style="stop-color:rgb(53.72549%,18.039216%,48.235294%);stop-opacity:1;"></stop><stop offset="0.3988" style="stop-color:rgb(47.45098%,18.823529%,49.803922%);stop-opacity:1;"></stop><stop offset="0.4562" style="stop-color:rgb(40.784314%,19.607843%,50.196078%);stop-opacity:1;"></stop><stop offset="0.5801" style="stop-color:rgb(29.019608%,21.176471%,50.980392%);stop-opacity:1;"></stop><stop offset="0.7017" style="stop-color:rgb(20.392157%,22.352941%,51.764706%);stop-opacity:1;"></stop><stop offset="0.8189" style="stop-color:rgb(15.294118%,22.745098%,52.156863%);stop-opacity:1;"></stop><stop offset="0.9268" style="stop-color:rgb(13.72549%,23.137255%,52.156863%);stop-opacity:1;"></stop></linearGradient><linearGradient id="linear1" gradientUnits="userSpaceOnUse" x1="84.190002" y1="147.18629" x2="81.704903" y2="17.336" gradientTransform="matrix(0.260636,0,0,0.261799,0.400912,0.450301)"><stop offset="0.0736196" style="stop-color:rgb(29.803922%,66.27451%,50.196078%);stop-opacity:1;"></stop><stop offset="0.1551" style="stop-color:rgb(26.666667%,61.176471%,51.764706%);stop-opacity:1;"></stop><stop offset="0.3061" style="stop-color:rgb(18.039216%,47.45098%,56.470588%);stop-opacity:1;"></stop><stop offset="0.4294" style="stop-color:rgb(9.803922%,34.509804%,60.784314%);stop-opacity:1;"></stop><stop offset="0.5361" style="stop-color:rgb(11.372549%,29.803922%,57.254902%);stop-opacity:1;"></stop><stop offset="0.7136" style="stop-color:rgb(12.941176%,24.705882%,53.333333%);stop-opacity:1;"></stop><stop offset="0.8773" style="stop-color:rgb(13.72549%,23.137255%,52.156863%);stop-opacity:1;"></stop></linearGradient><linearGradient id="linear2" gradientUnits="userSpaceOnUse" x1="64.157402" y1="44.4772" x2="102.406" y2="131.6337" gradientTransform="matrix(0.260636,0,0,0.261799,0.400912,0.450301)"><stop offset="0" style="stop-color:rgb(41.960784%,72.941176%,79.607843%);stop-opacity:1;"></stop><stop offset="0.272" style="stop-color:rgb(23.529412%,51.372549%,69.411765%);stop-opacity:1;"></stop><stop offset="0.4969" style="stop-color:rgb(9.803922%,35.294118%,61.568627%);stop-opacity:1;"></stop><stop offset="0.8221" style="stop-color:rgb(13.72549%,23.137255%,52.156863%);stop-opacity:1;"></stop></linearGradient></defs><g id="surface1"><path style=" stroke:none;fill-rule:nonzero;fill:rgb(13.72549%,23.137255%,52.156863%);fill-opacity:1;" d="M 54.171875 30.53125 C 52.503906 30.53125 51.25 30.058594 50.390625 29.144531 C 49.53125 28.226562 49.085938 26.890625 49.085938 25.191406 C 49.085938 24.351562 49.21875 23.59375 49.480469 22.914062 C 49.738281 22.257812 50.105469 21.683594 50.574219 21.238281 C 51.042969 20.792969 51.589844 20.425781 52.214844 20.191406 C 52.839844 19.953125 53.542969 19.824219 54.300781 19.824219 C 54.742188 19.824219 55.132812 19.851562 55.472656 19.929688 C 55.839844 19.980469 56.125 20.058594 56.410156 20.136719 C 56.671875 20.214844 56.90625 20.292969 57.0625 20.398438 C 57.246094 20.476562 57.375 20.554688 57.453125 20.609375 L 56.800781 22.46875 C 56.488281 22.3125 56.125 22.152344 55.707031 22.046875 C 55.289062 21.917969 54.820312 21.867188 54.300781 21.867188 C 53.933594 21.867188 53.597656 21.917969 53.257812 22.046875 C 52.917969 22.152344 52.632812 22.363281 52.371094 22.625 C 52.109375 22.886719 51.902344 23.226562 51.746094 23.644531 C 51.589844 24.066406 51.511719 24.5625 51.511719 25.164062 C 51.511719 25.636719 51.5625 26.082031 51.667969 26.472656 C 51.773438 26.890625 51.929688 27.230469 52.164062 27.519531 C 52.398438 27.808594 52.683594 28.042969 53.074219 28.226562 C 53.441406 28.410156 53.910156 28.488281 54.429688 28.488281 C 54.769531 28.488281 55.054688 28.460938 55.316406 28.4375 C 55.578125 28.410156 55.8125 28.359375 56.019531 28.304688 C 56.230469 28.253906 56.410156 28.199219 56.566406 28.121094 C 56.722656 28.042969 56.855469 27.992188 56.984375 27.9375 L 57.609375 29.773438 C 57.296875 29.980469 56.828125 30.136719 56.253906 30.296875 C 55.628906 30.453125 54.953125 30.53125 54.171875 30.53125 Z M 54.171875 30.53125 "></path><path style=" stroke:none;fill-rule:nonzero;fill:rgb(13.72549%,23.137255%,52.156863%);fill-opacity:1;" d="M 61.546875 22.363281 C 62.199219 22.363281 62.71875 22.441406 63.160156 22.574219 C 63.605469 22.730469 63.945312 22.9375 64.203125 23.199219 C 64.464844 23.488281 64.648438 23.804688 64.75 24.195312 C 64.855469 24.589844 64.910156 25.035156 64.910156 25.503906 L 64.910156 30.085938 C 64.59375 30.164062 64.152344 30.242188 63.605469 30.320312 C 63.058594 30.425781 62.378906 30.453125 61.570312 30.453125 C 61.078125 30.453125 60.609375 30.398438 60.21875 30.320312 C 59.800781 30.242188 59.460938 30.085938 59.175781 29.875 C 58.886719 29.667969 58.652344 29.40625 58.496094 29.089844 C 58.339844 28.777344 58.261719 28.359375 58.261719 27.886719 C 58.261719 27.441406 58.339844 27.050781 58.523438 26.734375 C 58.707031 26.421875 58.941406 26.160156 59.253906 25.976562 C 59.566406 25.792969 59.902344 25.660156 60.296875 25.582031 C 60.6875 25.503906 61.101562 25.453125 61.519531 25.453125 C 61.808594 25.453125 62.066406 25.453125 62.277344 25.476562 C 62.484375 25.503906 62.667969 25.53125 62.824219 25.582031 L 62.824219 25.375 C 62.824219 25.007812 62.71875 24.691406 62.484375 24.484375 C 62.25 24.246094 61.859375 24.144531 61.3125 24.144531 C 60.945312 24.144531 60.582031 24.167969 60.21875 24.222656 C 59.851562 24.273438 59.539062 24.351562 59.277344 24.457031 L 58.992188 22.675781 C 59.121094 22.652344 59.277344 22.597656 59.460938 22.546875 C 59.644531 22.492188 59.851562 22.46875 60.085938 22.414062 C 60.320312 22.390625 60.554688 22.363281 60.789062 22.335938 C 61.023438 22.363281 61.285156 22.363281 61.546875 22.363281 Z M 63.65625 20.191406 L 60.554688 21.761719 L 59.824219 20.609375 L 62.71875 18.671875 Z M 61.703125 28.777344 C 61.910156 28.777344 62.121094 28.777344 62.328125 28.75 C 62.535156 28.75 62.691406 28.726562 62.796875 28.699219 L 62.796875 27.023438 C 62.71875 26.996094 62.589844 26.996094 62.40625 26.96875 C 62.222656 26.945312 62.066406 26.945312 61.910156 26.945312 C 61.703125 26.945312 61.519531 26.945312 61.335938 26.96875 C 61.15625 26.996094 61 27.050781 60.867188 27.101562 C 60.738281 27.179688 60.632812 27.257812 60.554688 27.390625 C 60.476562 27.519531 60.425781 27.652344 60.425781 27.835938 C 60.425781 28.175781 60.53125 28.410156 60.765625 28.542969 C 61 28.726562 61.3125 28.777344 61.703125 28.777344 Z M 61.703125 28.777344 "></path><path style=" stroke:none;fill-rule:nonzero;fill:rgb(13.72549%,23.137255%,52.156863%);fill-opacity:1;" d="M 70.902344 26.210938 C 70.902344 25.503906 70.824219 25.007812 70.640625 24.691406 C 70.460938 24.40625 70.148438 24.246094 69.703125 24.246094 C 69.574219 24.246094 69.417969 24.246094 69.285156 24.273438 C 69.128906 24.300781 69 24.300781 68.871094 24.328125 L 68.871094 30.320312 L 66.679688 30.320312 L 66.679688 22.835938 C 66.863281 22.78125 67.097656 22.730469 67.332031 22.675781 C 67.59375 22.625 67.851562 22.574219 68.113281 22.519531 C 68.402344 22.46875 68.6875 22.441406 68.972656 22.414062 C 69.261719 22.390625 69.546875 22.390625 69.835938 22.390625 C 70.382812 22.390625 70.851562 22.46875 71.191406 22.597656 C 71.527344 22.730469 71.816406 22.914062 72.050781 23.097656 C 72.363281 22.859375 72.726562 22.703125 73.117188 22.574219 C 73.535156 22.441406 73.898438 22.390625 74.238281 22.390625 C 74.863281 22.390625 75.359375 22.46875 75.75 22.652344 C 76.140625 22.835938 76.453125 23.070312 76.6875 23.382812 C 76.921875 23.699219 77.078125 24.066406 77.183594 24.507812 C 77.261719 24.953125 77.316406 25.425781 77.316406 25.949219 L 77.316406 30.320312 L 75.125 30.320312 L 75.125 26.210938 C 75.125 25.503906 75.046875 25.007812 74.863281 24.691406 C 74.683594 24.40625 74.371094 24.246094 73.925781 24.246094 C 73.796875 24.246094 73.640625 24.273438 73.429688 24.328125 C 73.222656 24.378906 73.039062 24.457031 72.910156 24.535156 C 72.988281 24.769531 73.015625 25.007812 73.039062 25.242188 C 73.066406 25.503906 73.066406 25.765625 73.066406 26.054688 L 73.066406 30.296875 L 70.875 30.296875 L 70.875 26.210938 Z M 70.902344 26.210938 "></path><path style=" stroke:none;fill-rule:nonzero;fill:rgb(13.72549%,23.137255%,52.156863%);fill-opacity:1;" d="M 81.875 22.363281 C 82.527344 22.363281 83.046875 22.441406 83.492188 22.574219 C 83.933594 22.730469 84.273438 22.9375 84.535156 23.199219 C 84.792969 23.488281 84.976562 23.804688 85.082031 24.195312 C 85.1875 24.589844 85.238281 25.035156 85.238281 25.503906 L 85.238281 30.085938 C 84.925781 30.164062 84.480469 30.242188 83.933594 30.320312 C 83.386719 30.425781 82.710938 30.453125 81.902344 30.453125 C 81.40625 30.453125 80.9375 30.398438 80.546875 30.320312 C 80.128906 30.242188 79.789062 30.085938 79.503906 29.875 C 79.21875 29.667969 78.984375 29.40625 78.828125 29.089844 C 78.667969 28.777344 78.589844 28.359375 78.589844 27.886719 C 78.589844 27.441406 78.667969 27.050781 78.851562 26.734375 C 79.035156 26.421875 79.269531 26.160156 79.582031 25.976562 C 79.894531 25.792969 80.234375 25.660156 80.625 25.582031 C 81.015625 25.503906 81.433594 25.453125 81.851562 25.453125 C 82.136719 25.453125 82.398438 25.453125 82.605469 25.476562 C 82.8125 25.503906 82.996094 25.53125 83.152344 25.582031 L 83.152344 25.375 C 83.152344 25.007812 83.046875 24.691406 82.8125 24.484375 C 82.578125 24.246094 82.1875 24.144531 81.640625 24.144531 C 81.277344 24.144531 80.910156 24.167969 80.546875 24.222656 C 80.179688 24.273438 79.867188 24.351562 79.609375 24.457031 L 79.320312 22.675781 C 79.453125 22.652344 79.609375 22.597656 79.789062 22.546875 C 79.972656 22.492188 80.179688 22.46875 80.417969 22.414062 C 80.652344 22.390625 80.886719 22.363281 81.121094 22.335938 C 81.378906 22.363281 81.613281 22.363281 81.875 22.363281 Z M 82.058594 28.777344 C 82.265625 28.777344 82.476562 28.777344 82.683594 28.75 C 82.890625 28.726562 83.046875 28.726562 83.152344 28.699219 L 83.152344 27.023438 C 83.074219 26.996094 82.945312 26.996094 82.761719 26.96875 C 82.578125 26.945312 82.421875 26.945312 82.265625 26.945312 C 82.058594 26.945312 81.875 26.945312 81.691406 26.96875 C 81.511719 26.996094 81.355469 27.050781 81.222656 27.101562 C 81.09375 27.179688 80.988281 27.257812 80.910156 27.390625 C 80.832031 27.519531 80.78125 27.652344 80.78125 27.835938 C 80.78125 28.175781 80.886719 28.410156 81.121094 28.542969 C 81.328125 28.726562 81.640625 28.777344 82.058594 28.777344 Z M 82.058594 28.777344 "></path><path style=" stroke:none;fill-rule:nonzero;fill:rgb(13.72549%,23.137255%,52.156863%);fill-opacity:1;" d="M 91.648438 24.507812 C 91.441406 24.457031 91.234375 24.40625 90.945312 24.351562 C 90.683594 24.300781 90.398438 24.273438 90.085938 24.273438 C 89.957031 24.273438 89.773438 24.273438 89.589844 24.300781 C 89.40625 24.328125 89.25 24.351562 89.148438 24.378906 L 89.148438 30.320312 L 86.957031 30.320312 L 86.957031 22.964844 C 87.347656 22.835938 87.816406 22.703125 88.339844 22.574219 C 88.859375 22.441406 89.460938 22.390625 90.136719 22.390625 C 90.242188 22.390625 90.398438 22.390625 90.554688 22.414062 C 90.710938 22.441406 90.894531 22.441406 91.050781 22.46875 C 91.207031 22.492188 91.390625 22.519531 91.546875 22.546875 C 91.703125 22.574219 91.859375 22.625 91.960938 22.675781 Z M 91.648438 24.507812 "></path><path style=" stroke:none;fill-rule:nonzero;fill:rgb(13.72549%,23.137255%,52.156863%);fill-opacity:1;" d="M 95.664062 22.363281 C 96.316406 22.363281 96.835938 22.441406 97.277344 22.574219 C 97.722656 22.730469 98.0625 22.9375 98.320312 23.199219 C 98.582031 23.488281 98.765625 23.804688 98.871094 24.195312 C 98.972656 24.589844 99.027344 25.035156 99.027344 25.503906 L 99.027344 30.085938 C 98.710938 30.164062 98.269531 30.242188 97.722656 30.320312 C 97.175781 30.425781 96.496094 30.453125 95.6875 30.453125 C 95.195312 30.453125 94.726562 30.398438 94.335938 30.320312 C 93.917969 30.242188 93.578125 30.085938 93.292969 29.875 C 93.003906 29.667969 92.769531 29.40625 92.613281 29.089844 C 92.457031 28.777344 92.378906 28.359375 92.378906 27.886719 C 92.378906 27.441406 92.457031 27.050781 92.640625 26.734375 C 92.824219 26.421875 93.058594 26.160156 93.371094 25.976562 C 93.683594 25.792969 94.019531 25.660156 94.414062 25.582031 C 94.804688 25.503906 95.21875 25.453125 95.636719 25.453125 C 95.925781 25.453125 96.183594 25.453125 96.394531 25.476562 C 96.601562 25.503906 96.785156 25.53125 96.941406 25.582031 L 96.941406 25.375 C 96.941406 25.007812 96.835938 24.691406 96.601562 24.484375 C 96.367188 24.246094 95.976562 24.144531 95.429688 24.144531 C 95.0625 24.144531 94.699219 24.167969 94.335938 24.222656 C 93.96875 24.273438 93.65625 24.351562 93.394531 24.457031 L 93.109375 22.675781 C 93.238281 22.652344 93.394531 22.597656 93.578125 22.546875 C 93.761719 22.492188 93.96875 22.46875 94.203125 22.414062 C 94.4375 22.390625 94.671875 22.363281 94.90625 22.335938 C 95.167969 22.363281 95.402344 22.363281 95.664062 22.363281 Z M 95.847656 28.777344 C 96.054688 28.777344 96.261719 28.777344 96.472656 28.75 C 96.679688 28.75 96.835938 28.726562 96.941406 28.699219 L 96.941406 27.023438 C 96.863281 26.996094 96.730469 26.996094 96.550781 26.96875 C 96.367188 26.945312 96.210938 26.945312 96.054688 26.945312 C 95.847656 26.945312 95.664062 26.945312 95.480469 26.96875 C 95.296875 26.996094 95.140625 27.050781 95.011719 27.101562 C 94.882812 27.179688 94.777344 27.257812 94.699219 27.390625 C 94.621094 27.519531 94.570312 27.652344 94.570312 27.835938 C 94.570312 28.175781 94.671875 28.410156 94.90625 28.542969 C 95.117188 28.726562 95.453125 28.777344 95.847656 28.777344 Z M 95.847656 28.777344 "></path><path style=" stroke:none;fill-rule:nonzero;fill:rgb(13.72549%,23.137255%,52.156863%);fill-opacity:1;" d="M 110.546875 30.058594 C 110.335938 30.113281 110.128906 30.164062 109.867188 30.21875 C 109.605469 30.269531 109.347656 30.320312 109.058594 30.347656 C 108.773438 30.375 108.488281 30.425781 108.199219 30.453125 C 107.914062 30.480469 107.625 30.480469 107.367188 30.480469 C 106.742188 30.480469 106.167969 30.375 105.671875 30.191406 C 105.175781 30.007812 104.757812 29.746094 104.421875 29.378906 C 104.082031 29.039062 103.820312 28.59375 103.640625 28.121094 C 103.457031 27.625 103.378906 27.074219 103.378906 26.445312 C 103.378906 25.820312 103.457031 25.242188 103.613281 24.746094 C 103.769531 24.246094 104.003906 23.804688 104.289062 23.460938 C 104.578125 23.097656 104.941406 22.835938 105.359375 22.652344 C 105.777344 22.46875 106.269531 22.363281 106.820312 22.363281 C 107.132812 22.363281 107.390625 22.390625 107.625 22.441406 C 107.859375 22.492188 108.121094 22.574219 108.355469 22.703125 L 108.355469 19.222656 L 110.546875 18.855469 Z M 105.59375 26.367188 C 105.59375 27.050781 105.75 27.597656 106.035156 28.019531 C 106.347656 28.4375 106.792969 28.644531 107.390625 28.644531 C 107.601562 28.644531 107.757812 28.644531 107.9375 28.621094 C 108.09375 28.59375 108.253906 28.59375 108.355469 28.566406 L 108.355469 24.5625 C 108.226562 24.484375 108.042969 24.40625 107.808594 24.351562 C 107.601562 24.300781 107.367188 24.273438 107.132812 24.273438 C 106.113281 24.246094 105.59375 24.953125 105.59375 26.367188 Z M 105.59375 26.367188 "></path><path style=" stroke:none;fill-rule:nonzero;fill:rgb(13.72549%,23.137255%,52.156863%);fill-opacity:1;" d="M 111.980469 26.5 C 111.980469 25.820312 112.082031 25.214844 112.292969 24.691406 C 112.5 24.167969 112.789062 23.75 113.125 23.410156 C 113.464844 23.070312 113.855469 22.808594 114.296875 22.625 C 114.742188 22.441406 115.210938 22.363281 115.679688 22.363281 C 116.773438 22.363281 117.636719 22.703125 118.285156 23.382812 C 118.910156 24.066406 119.25 25.058594 119.25 26.367188 C 119.25 26.5 119.25 26.628906 119.226562 26.789062 C 119.226562 26.945312 119.199219 27.074219 119.199219 27.207031 L 114.21875 27.207031 C 114.273438 27.652344 114.480469 28.019531 114.847656 28.28125 C 115.210938 28.542969 115.707031 28.671875 116.359375 28.671875 C 116.75 28.671875 117.164062 28.644531 117.53125 28.566406 C 117.921875 28.488281 118.234375 28.410156 118.46875 28.304688 L 118.753906 30.085938 C 118.625 30.136719 118.46875 30.21875 118.285156 30.269531 C 118.078125 30.320312 117.871094 30.375 117.636719 30.425781 C 117.398438 30.480469 117.140625 30.503906 116.851562 30.53125 C 116.566406 30.558594 116.304688 30.582031 116.019531 30.582031 C 115.316406 30.582031 114.714844 30.480469 114.195312 30.269531 C 113.671875 30.058594 113.257812 29.773438 112.917969 29.429688 C 112.578125 29.066406 112.316406 28.644531 112.160156 28.148438 C 112.058594 27.597656 111.980469 27.074219 111.980469 26.5 Z M 117.140625 25.660156 C 117.140625 25.476562 117.085938 25.296875 117.035156 25.113281 C 116.984375 24.929688 116.90625 24.769531 116.773438 24.640625 C 116.671875 24.507812 116.515625 24.378906 116.359375 24.300781 C 116.175781 24.222656 115.96875 24.167969 115.707031 24.167969 C 115.472656 24.167969 115.261719 24.222656 115.082031 24.300781 C 114.898438 24.378906 114.769531 24.484375 114.636719 24.640625 C 114.507812 24.769531 114.429688 24.929688 114.378906 25.113281 C 114.324219 25.296875 114.273438 25.476562 114.246094 25.660156 Z M 117.140625 25.660156 "></path><path style=" stroke:none;fill-rule:nonzero;fill:rgb(13.72549%,23.137255%,52.156863%);fill-opacity:1;" d="M 122.585938 43.59375 C 122.378906 43.648438 122.171875 43.699219 121.910156 43.75 C 121.648438 43.804688 121.386719 43.855469 121.101562 43.882812 C 120.816406 43.910156 120.527344 43.960938 120.242188 43.988281 C 119.953125 44.015625 119.667969 44.015625 119.40625 44.015625 C 118.78125 44.015625 118.207031 43.910156 117.714844 43.726562 C 117.21875 43.542969 116.800781 43.28125 116.460938 42.914062 C 116.125 42.574219 115.863281 42.128906 115.679688 41.65625 C 115.496094 41.160156 115.417969 40.609375 115.417969 39.980469 C 115.417969 39.355469 115.496094 38.777344 115.652344 38.28125 C 115.808594 37.78125 116.046875 37.335938 116.332031 36.996094 C 116.617188 36.632812 116.984375 36.371094 117.398438 36.1875 C 117.816406 36.003906 118.3125 35.898438 118.859375 35.898438 C 119.171875 35.898438 119.433594 35.925781 119.667969 35.976562 C 119.902344 36.027344 120.164062 36.105469 120.398438 36.238281 L 120.398438 32.730469 L 122.585938 32.363281 Z M 117.636719 39.902344 C 117.636719 40.585938 117.792969 41.132812 118.078125 41.554688 C 118.390625 41.972656 118.832031 42.179688 119.433594 42.179688 C 119.640625 42.179688 119.796875 42.179688 119.980469 42.15625 C 120.136719 42.128906 120.292969 42.128906 120.398438 42.101562 L 120.398438 38.097656 C 120.265625 38.019531 120.085938 37.941406 119.851562 37.886719 C 119.640625 37.835938 119.40625 37.808594 119.171875 37.808594 C 118.15625 37.78125 117.636719 38.488281 117.636719 39.902344 Z M 117.636719 39.902344 "></path><path style=" stroke:none;fill-rule:nonzero;fill:rgb(13.72549%,23.137255%,52.156863%);fill-opacity:1;" d="M 124.019531 40.035156 C 124.019531 39.355469 124.125 38.75 124.332031 38.226562 C 124.542969 37.703125 124.828125 37.285156 125.167969 36.945312 C 125.507812 36.605469 125.898438 36.34375 126.339844 36.160156 C 126.785156 35.976562 127.253906 35.898438 127.722656 35.898438 C 128.816406 35.898438 129.675781 36.238281 130.328125 36.917969 C 130.953125 37.601562 131.292969 38.59375 131.292969 39.902344 C 131.292969 40.035156 131.292969 40.164062 131.265625 40.324219 C 131.265625 40.480469 131.238281 40.609375 131.238281 40.742188 L 126.289062 40.742188 C 126.339844 41.1875 126.546875 41.554688 126.914062 41.816406 C 127.277344 42.078125 127.773438 42.207031 128.425781 42.207031 C 128.816406 42.207031 129.234375 42.179688 129.597656 42.101562 C 129.988281 42.023438 130.300781 41.945312 130.535156 41.839844 L 130.824219 43.621094 C 130.691406 43.671875 130.535156 43.75 130.355469 43.804688 C 130.144531 43.855469 129.9375 43.910156 129.703125 43.960938 C 129.46875 44.015625 129.207031 44.039062 128.921875 44.066406 C 128.632812 44.09375 128.375 44.117188 128.085938 44.117188 C 127.382812 44.117188 126.785156 44.015625 126.261719 43.804688 C 125.742188 43.59375 125.324219 43.308594 124.984375 42.964844 C 124.644531 42.601562 124.386719 42.179688 124.230469 41.683594 C 124.097656 41.132812 124.019531 40.585938 124.019531 40.035156 Z M 129.179688 39.195312 C 129.179688 39.011719 129.128906 38.832031 129.078125 38.648438 C 129.023438 38.464844 128.945312 38.304688 128.816406 38.175781 C 128.710938 38.042969 128.554688 37.914062 128.398438 37.835938 C 128.214844 37.757812 128.007812 37.703125 127.746094 37.703125 C 127.511719 37.703125 127.304688 37.757812 127.121094 37.835938 C 126.941406 37.914062 126.808594 38.019531 126.679688 38.175781 C 126.546875 38.304688 126.46875 38.464844 126.417969 38.648438 C 126.367188 38.832031 126.3125 39.011719 126.289062 39.195312 Z M 129.179688 39.195312 "></path><path style=" stroke:none;fill-rule:nonzero;fill:rgb(13.72549%,23.137255%,52.156863%);fill-opacity:1;" d="M 54.171875 44.066406 C 52.503906 44.066406 51.25 43.59375 50.390625 42.679688 C 49.53125 41.761719 49.085938 40.425781 49.085938 38.726562 C 49.085938 37.886719 49.21875 37.128906 49.480469 36.449219 C 49.738281 35.792969 50.105469 35.21875 50.574219 34.773438 C 51.042969 34.328125 51.589844 33.960938 52.214844 33.726562 C 52.839844 33.488281 53.542969 33.359375 54.300781 33.359375 C 54.742188 33.359375 55.132812 33.382812 55.472656 33.464844 C 55.839844 33.515625 56.125 33.59375 56.410156 33.671875 C 56.671875 33.75 56.90625 33.828125 57.0625 33.933594 C 57.246094 34.011719 57.375 34.089844 57.453125 34.144531 L 56.800781 36.003906 C 56.488281 35.84375 56.125 35.6875 55.707031 35.582031 C 55.289062 35.453125 54.820312 35.402344 54.300781 35.402344 C 53.933594 35.402344 53.597656 35.453125 53.257812 35.582031 C 52.917969 35.714844 52.632812 35.898438 52.371094 36.160156 C 52.109375 36.421875 51.902344 36.761719 51.746094 37.179688 C 51.589844 37.601562 51.511719 38.097656 51.511719 38.699219 C 51.511719 39.171875 51.5625 39.617188 51.667969 40.007812 C 51.773438 40.425781 51.929688 40.765625 52.164062 41.054688 C 52.398438 41.34375 52.683594 41.578125 53.074219 41.761719 C 53.441406 41.945312 53.910156 42.023438 54.429688 42.023438 C 54.769531 42.023438 55.054688 41.996094 55.316406 41.972656 C 55.578125 41.945312 55.8125 41.894531 56.019531 41.839844 C 56.230469 41.789062 56.410156 41.734375 56.566406 41.65625 C 56.722656 41.578125 56.855469 41.527344 56.984375 41.472656 L 57.609375 43.308594 C 57.296875 43.515625 56.828125 43.671875 56.253906 43.832031 C 55.628906 43.988281 54.953125 44.066406 54.171875 44.066406 Z M 54.171875 44.066406 "></path><path style=" stroke:none;fill-rule:nonzero;fill:rgb(13.72549%,23.137255%,52.156863%);fill-opacity:1;" d="M 65.691406 39.957031 C 65.691406 40.558594 65.613281 41.132812 65.429688 41.632812 C 65.246094 42.128906 64.988281 42.574219 64.671875 42.941406 C 64.335938 43.308594 63.945312 43.570312 63.476562 43.777344 C 63.003906 43.988281 62.484375 44.066406 61.910156 44.066406 C 61.335938 44.066406 60.816406 43.960938 60.375 43.777344 C 59.902344 43.570312 59.511719 43.308594 59.175781 42.941406 C 58.835938 42.574219 58.574219 42.15625 58.390625 41.632812 C 58.210938 41.132812 58.105469 40.558594 58.105469 39.957031 C 58.105469 39.355469 58.210938 38.777344 58.390625 38.28125 C 58.574219 37.78125 58.835938 37.335938 59.175781 36.996094 C 59.511719 36.632812 59.902344 36.371094 60.375 36.160156 C 60.84375 35.949219 61.335938 35.871094 61.886719 35.871094 C 62.433594 35.871094 62.953125 35.976562 63.421875 36.160156 C 63.890625 36.371094 64.28125 36.632812 64.621094 36.996094 C 64.960938 37.363281 65.222656 37.78125 65.402344 38.28125 C 65.585938 38.777344 65.691406 39.355469 65.691406 39.957031 Z M 63.449219 39.957031 C 63.449219 39.273438 63.320312 38.75 63.03125 38.359375 C 62.769531 37.964844 62.378906 37.78125 61.886719 37.78125 C 61.390625 37.78125 61 37.964844 60.710938 38.359375 C 60.425781 38.75 60.296875 39.273438 60.296875 39.957031 C 60.296875 40.636719 60.425781 41.1875 60.710938 41.578125 C 61 41.972656 61.363281 42.179688 61.886719 42.179688 C 62.378906 42.179688 62.769531 41.972656 63.03125 41.578125 C 63.320312 41.160156 63.449219 40.636719 63.449219 39.957031 Z M 63.449219 39.957031 "></path><path style=" stroke:none;fill-rule:nonzero;fill:rgb(13.72549%,23.137255%,52.156863%);fill-opacity:1;" d="M 71.347656 39.71875 C 71.347656 39.011719 71.269531 38.515625 71.085938 38.203125 C 70.902344 37.914062 70.589844 37.757812 70.148438 37.757812 C 70.015625 37.757812 69.859375 37.757812 69.730469 37.78125 C 69.574219 37.808594 69.445312 37.808594 69.3125 37.835938 L 69.3125 43.832031 L 67.125 43.832031 L 67.125 36.34375 C 67.304688 36.289062 67.539062 36.238281 67.773438 36.1875 C 68.035156 36.132812 68.296875 36.082031 68.558594 36.027344 C 68.84375 35.976562 69.128906 35.949219 69.417969 35.925781 C 69.703125 35.898438 69.992188 35.898438 70.277344 35.898438 C 70.824219 35.898438 71.292969 35.976562 71.632812 36.105469 C 71.972656 36.238281 72.257812 36.421875 72.492188 36.605469 C 72.804688 36.371094 73.171875 36.210938 73.5625 36.082031 C 73.976562 35.949219 74.34375 35.898438 74.683594 35.898438 C 75.308594 35.898438 75.804688 35.976562 76.195312 36.160156 C 76.585938 36.34375 76.898438 36.578125 77.132812 36.894531 C 77.367188 37.207031 77.523438 37.574219 77.628906 38.019531 C 77.707031 38.464844 77.757812 38.933594 77.757812 39.457031 L 77.757812 43.832031 L 75.566406 43.832031 L 75.566406 39.71875 C 75.566406 39.011719 75.488281 38.515625 75.308594 38.203125 C 75.125 37.914062 74.8125 37.757812 74.371094 37.757812 C 74.238281 37.757812 74.082031 37.78125 73.875 37.835938 C 73.664062 37.886719 73.484375 37.964844 73.351562 38.042969 C 73.429688 38.28125 73.457031 38.515625 73.484375 38.75 C 73.507812 39.011719 73.507812 39.273438 73.507812 39.5625 L 73.507812 43.804688 L 71.320312 43.804688 L 71.320312 39.71875 Z M 71.347656 39.71875 "></path><path style=" stroke:none;fill-rule:nonzero;fill:rgb(13.72549%,23.137255%,52.156863%);fill-opacity:1;" d="M 79.113281 40.035156 C 79.113281 39.355469 79.21875 38.75 79.425781 38.226562 C 79.632812 37.703125 79.921875 37.285156 80.257812 36.945312 C 80.597656 36.605469 80.988281 36.34375 81.433594 36.160156 C 81.875 35.976562 82.34375 35.898438 82.8125 35.898438 C 83.910156 35.898438 84.769531 36.238281 85.421875 36.917969 C 86.046875 37.601562 86.382812 38.59375 86.382812 39.902344 C 86.382812 40.035156 86.382812 40.164062 86.359375 40.324219 C 86.359375 40.480469 86.332031 40.609375 86.332031 40.742188 L 81.355469 40.742188 C 81.40625 41.1875 81.613281 41.554688 81.980469 41.816406 C 82.34375 42.078125 82.839844 42.207031 83.492188 42.207031 C 83.882812 42.207031 84.300781 42.179688 84.664062 42.101562 C 85.054688 42.023438 85.367188 41.945312 85.601562 41.839844 L 85.890625 43.621094 C 85.757812 43.671875 85.601562 43.75 85.421875 43.804688 C 85.210938 43.855469 85.003906 43.910156 84.769531 43.960938 C 84.535156 44.015625 84.273438 44.039062 83.988281 44.066406 C 83.699219 44.09375 83.441406 44.117188 83.152344 44.117188 C 82.449219 44.117188 81.851562 44.015625 81.328125 43.804688 C 80.808594 43.59375 80.390625 43.308594 80.050781 42.964844 C 79.710938 42.601562 79.453125 42.179688 79.296875 41.683594 C 79.191406 41.132812 79.113281 40.585938 79.113281 40.035156 Z M 84.273438 39.195312 C 84.273438 39.011719 84.222656 38.832031 84.167969 38.648438 C 84.117188 38.464844 84.039062 38.304688 83.910156 38.175781 C 83.804688 38.042969 83.648438 37.914062 83.492188 37.835938 C 83.308594 37.757812 83.101562 37.703125 82.839844 37.703125 C 82.605469 37.703125 82.398438 37.757812 82.214844 37.835938 C 82.03125 37.914062 81.902344 38.019531 81.769531 38.175781 C 81.640625 38.304688 81.5625 38.464844 81.511719 38.648438 C 81.457031 38.832031 81.40625 39.011719 81.378906 39.195312 Z M 84.273438 39.195312 "></path><path style=" stroke:none;fill-rule:nonzero;fill:rgb(13.72549%,23.137255%,52.156863%);fill-opacity:1;" d="M 92.484375 38.042969 C 92.273438 37.992188 92.066406 37.941406 91.78125 37.886719 C 91.519531 37.835938 91.234375 37.808594 90.917969 37.808594 C 90.789062 37.808594 90.605469 37.808594 90.425781 37.835938 C 90.242188 37.863281 90.085938 37.886719 89.980469 37.914062 L 89.980469 43.855469 L 87.792969 43.855469 L 87.792969 36.5 C 88.183594 36.371094 88.652344 36.238281 89.171875 36.105469 C 89.695312 35.976562 90.292969 35.925781 90.972656 35.925781 C 91.101562 35.925781 91.234375 35.925781 91.390625 35.949219 C 91.546875 35.976562 91.726562 35.976562 91.882812 36.003906 C 92.039062 36.027344 92.222656 36.054688 92.378906 36.082031 C 92.535156 36.105469 92.691406 36.160156 92.796875 36.210938 Z M 92.484375 38.042969 "></path><path style=" stroke:none;fill-rule:nonzero;fill:rgb(13.72549%,23.137255%,52.156863%);fill-opacity:1;" d="M 93.316406 39.957031 C 93.316406 39.40625 93.394531 38.855469 93.578125 38.359375 C 93.761719 37.863281 94.019531 37.417969 94.359375 37.050781 C 94.699219 36.683594 95.117188 36.394531 95.609375 36.160156 C 96.105469 35.949219 96.652344 35.84375 97.277344 35.84375 C 97.695312 35.84375 98.0625 35.871094 98.398438 35.949219 C 98.738281 36.027344 99.078125 36.132812 99.390625 36.265625 L 98.949219 38.019531 C 98.738281 37.941406 98.503906 37.863281 98.269531 37.808594 C 98.035156 37.757812 97.75 37.730469 97.4375 37.730469 C 96.785156 37.730469 96.316406 37.941406 95.976562 38.332031 C 95.664062 38.726562 95.507812 39.273438 95.507812 39.929688 C 95.507812 40.636719 95.664062 41.160156 95.949219 41.554688 C 96.238281 41.945312 96.757812 42.128906 97.515625 42.128906 C 97.773438 42.128906 98.0625 42.101562 98.375 42.050781 C 98.6875 41.996094 98.949219 41.917969 99.207031 41.816406 L 99.519531 43.621094 C 99.261719 43.726562 98.949219 43.832031 98.554688 43.910156 C 98.164062 43.988281 97.75 44.039062 97.277344 44.039062 C 96.574219 44.039062 95.976562 43.933594 95.453125 43.726562 C 94.933594 43.515625 94.515625 43.226562 94.203125 42.863281 C 93.863281 42.496094 93.628906 42.078125 93.472656 41.578125 C 93.371094 41.082031 93.316406 40.558594 93.316406 39.957031 Z M 93.316406 39.957031 "></path><path style=" stroke:none;fill-rule:nonzero;fill:rgb(13.72549%,23.137255%,52.156863%);fill-opacity:1;" d="M 103.144531 33.828125 C 103.144531 34.222656 103.011719 34.5625 102.753906 34.773438 C 102.492188 35.007812 102.179688 35.113281 101.839844 35.113281 C 101.476562 35.113281 101.1875 35.007812 100.929688 34.773438 C 100.667969 34.535156 100.539062 34.222656 100.539062 33.828125 C 100.539062 33.4375 100.667969 33.097656 100.929688 32.886719 C 101.1875 32.652344 101.5 32.546875 101.839844 32.546875 C 102.207031 32.546875 102.492188 32.652344 102.753906 32.886719 C 103.011719 33.121094 103.144531 33.4375 103.144531 33.828125 Z M 102.933594 43.855469 L 100.746094 43.855469 L 100.746094 36.082031 L 102.933594 36.082031 Z M 102.933594 43.855469 "></path><path style=" stroke:none;fill-rule:nonzero;fill:rgb(13.72549%,23.137255%,52.156863%);fill-opacity:1;" d="M 111.925781 39.957031 C 111.925781 40.558594 111.847656 41.132812 111.667969 41.632812 C 111.484375 42.128906 111.222656 42.574219 110.910156 42.941406 C 110.570312 43.308594 110.179688 43.570312 109.710938 43.777344 C 109.242188 43.988281 108.722656 44.066406 108.148438 44.066406 C 107.574219 44.066406 107.054688 43.960938 106.609375 43.777344 C 106.140625 43.570312 105.75 43.308594 105.410156 42.941406 C 105.074219 42.574219 104.8125 42.15625 104.628906 41.632812 C 104.445312 41.132812 104.34375 40.558594 104.34375 39.957031 C 104.34375 39.355469 104.445312 38.777344 104.628906 38.28125 C 104.8125 37.78125 105.074219 37.335938 105.410156 36.996094 C 105.75 36.632812 106.140625 36.371094 106.609375 36.160156 C 107.078125 35.949219 107.574219 35.871094 108.121094 35.871094 C 108.667969 35.871094 109.191406 35.976562 109.660156 36.160156 C 110.128906 36.371094 110.519531 36.632812 110.859375 36.996094 C 111.195312 37.363281 111.457031 37.78125 111.640625 38.28125 C 111.847656 38.777344 111.925781 39.355469 111.925781 39.957031 Z M 109.710938 39.957031 C 109.710938 39.273438 109.582031 38.75 109.292969 38.359375 C 109.035156 37.964844 108.644531 37.78125 108.148438 37.78125 C 107.652344 37.78125 107.261719 37.964844 106.976562 38.359375 C 106.6875 38.75 106.558594 39.273438 106.558594 39.957031 C 106.558594 40.636719 106.6875 41.1875 106.976562 41.578125 C 107.261719 41.972656 107.625 42.179688 108.148438 42.179688 C 108.644531 42.179688 109.035156 41.972656 109.292969 41.578125 C 109.554688 41.160156 109.710938 40.636719 109.710938 39.957031 Z M 109.710938 39.957031 "></path><path style=" stroke:none;fill-rule:nonzero;fill:rgb(13.72549%,23.137255%,52.156863%);fill-opacity:1;" d="M 140.570312 44.039062 C 138.902344 44.039062 137.652344 43.570312 136.792969 42.652344 C 135.929688 41.734375 135.488281 40.402344 135.488281 38.699219 C 135.488281 37.863281 135.617188 37.101562 135.878906 36.421875 C 136.140625 35.765625 136.503906 35.191406 136.972656 34.746094 C 137.441406 34.300781 137.992188 33.933594 138.617188 33.699219 C 139.242188 33.464844 139.945312 33.332031 140.703125 33.332031 C 141.144531 33.332031 141.535156 33.359375 141.875 33.4375 C 142.238281 33.488281 142.527344 33.566406 142.8125 33.644531 C 143.074219 33.726562 143.308594 33.804688 143.464844 33.910156 C 143.644531 33.988281 143.777344 34.066406 143.855469 34.117188 L 143.203125 35.976562 C 142.890625 35.820312 142.527344 35.664062 142.109375 35.558594 C 141.691406 35.425781 141.222656 35.375 140.703125 35.375 C 140.335938 35.375 139.996094 35.425781 139.660156 35.558594 C 139.320312 35.6875 139.03125 35.871094 138.773438 36.132812 C 138.511719 36.394531 138.304688 36.734375 138.148438 37.15625 C 137.992188 37.574219 137.914062 38.070312 137.914062 38.671875 C 137.914062 39.144531 137.964844 39.589844 138.070312 39.980469 C 138.171875 40.402344 138.328125 40.742188 138.5625 41.027344 C 138.796875 41.316406 139.085938 41.554688 139.476562 41.734375 C 139.839844 41.917969 140.308594 41.996094 140.832031 41.996094 C 141.171875 41.996094 141.457031 41.972656 141.71875 41.945312 C 141.976562 41.894531 142.214844 41.867188 142.421875 41.816406 C 142.628906 41.761719 142.8125 41.710938 142.96875 41.632812 C 143.125 41.554688 143.253906 41.5 143.386719 41.449219 L 144.011719 43.28125 C 143.699219 43.488281 143.230469 43.648438 142.65625 43.804688 C 142.03125 43.960938 141.351562 44.039062 140.570312 44.039062 Z M 140.570312 44.039062 "></path><path style=" stroke:none;fill-rule:nonzero;fill:rgb(13.72549%,23.137255%,52.156863%);fill-opacity:1;" d="M 147.945312 35.871094 C 148.597656 35.871094 149.121094 35.949219 149.5625 36.082031 C 150.007812 36.238281 150.34375 36.449219 150.605469 36.710938 C 150.867188 36.996094 151.046875 37.3125 151.152344 37.703125 C 151.257812 38.097656 151.308594 38.542969 151.308594 39.011719 L 151.308594 43.59375 C 150.996094 43.671875 150.554688 43.75 150.007812 43.832031 C 149.457031 43.933594 148.78125 43.960938 147.972656 43.960938 C 147.476562 43.960938 147.007812 43.910156 146.617188 43.832031 C 146.199219 43.75 145.863281 43.59375 145.574219 43.386719 C 145.289062 43.175781 145.054688 42.914062 144.898438 42.601562 C 144.742188 42.285156 144.664062 41.867188 144.664062 41.394531 C 144.664062 40.949219 144.742188 40.558594 144.921875 40.242188 C 145.105469 39.929688 145.339844 39.667969 145.652344 39.484375 C 145.964844 39.300781 146.304688 39.171875 146.695312 39.066406 C 147.085938 38.988281 147.503906 38.933594 147.921875 38.933594 C 148.207031 38.933594 148.46875 38.933594 148.675781 38.960938 C 148.886719 38.988281 149.066406 39.011719 149.222656 39.066406 L 149.222656 38.933594 C 149.222656 38.566406 149.121094 38.253906 148.886719 38.042969 C 148.652344 37.808594 148.257812 37.703125 147.710938 37.703125 C 147.347656 37.703125 146.984375 37.730469 146.617188 37.78125 C 146.253906 37.835938 145.941406 37.914062 145.679688 38.019531 L 145.394531 36.238281 C 145.523438 36.210938 145.679688 36.160156 145.863281 36.105469 C 146.042969 36.054688 146.253906 36.027344 146.488281 35.976562 C 146.722656 35.949219 146.957031 35.925781 147.191406 35.898438 C 147.425781 35.871094 147.6875 35.871094 147.945312 35.871094 Z M 148.101562 42.3125 C 148.3125 42.3125 148.519531 42.3125 148.730469 42.285156 C 148.9375 42.285156 149.09375 42.257812 149.199219 42.234375 L 149.199219 40.558594 C 149.121094 40.53125 148.988281 40.53125 148.808594 40.503906 C 148.625 40.480469 148.46875 40.480469 148.3125 40.480469 C 148.101562 40.480469 147.921875 40.480469 147.738281 40.503906 C 147.554688 40.53125 147.398438 40.585938 147.269531 40.636719 C 147.140625 40.714844 147.035156 40.792969 146.957031 40.925781 C 146.878906 41.027344 146.824219 41.1875 146.824219 41.371094 C 146.824219 41.710938 146.929688 41.945312 147.164062 42.078125 C 147.398438 42.234375 147.710938 42.3125 148.101562 42.3125 Z M 148.101562 42.3125 "></path><path style=" stroke:none;fill-rule:nonzero;fill:rgb(13.72549%,23.137255%,52.156863%);fill-opacity:1;" d="M 156.105469 43.988281 C 155.480469 43.988281 154.957031 43.910156 154.566406 43.777344 C 154.175781 43.648438 153.863281 43.464844 153.628906 43.226562 C 153.394531 42.992188 153.238281 42.703125 153.160156 42.390625 C 153.082031 42.050781 153.03125 41.683594 153.03125 41.265625 L 153.03125 32.730469 L 155.21875 32.363281 L 155.21875 40.820312 C 155.21875 41.027344 155.246094 41.1875 155.269531 41.34375 C 155.296875 41.5 155.347656 41.632812 155.425781 41.734375 C 155.503906 41.839844 155.636719 41.945312 155.792969 41.996094 C 155.949219 42.078125 156.15625 42.101562 156.417969 42.128906 Z M 156.105469 43.988281 "></path><path style=" stroke:none;fill-rule:nonzero;fill:rgb(13.72549%,23.137255%,52.156863%);fill-opacity:1;" d="M 159.804688 33.828125 C 159.804688 34.222656 159.675781 34.5625 159.414062 34.773438 C 159.152344 35.007812 158.839844 35.113281 158.503906 35.113281 C 158.136719 35.113281 157.851562 35.007812 157.589844 34.773438 C 157.328125 34.535156 157.199219 34.222656 157.199219 33.828125 C 157.199219 33.4375 157.328125 33.097656 157.589844 32.886719 C 157.851562 32.652344 158.164062 32.546875 158.503906 32.546875 C 158.867188 32.546875 159.152344 32.652344 159.414062 32.886719 C 159.675781 33.121094 159.804688 33.4375 159.804688 33.828125 Z M 159.597656 43.832031 L 157.40625 43.832031 L 157.40625 36.054688 L 159.597656 36.054688 Z M 159.597656 43.832031 "></path><path style=" stroke:none;fill-rule:nonzero;fill:url(#linear0);" d="M 22.035156 38.464844 C 13.066406 38.464844 5.820312 31.160156 5.820312 22.179688 C 5.820312 13.171875 13.09375 5.894531 22.035156 5.894531 C 25.628906 5.894531 28.964844 7.074219 31.652344 9.0625 L 34.855469 4.691406 C 31.261719 2.019531 26.828125 0.449219 22.035156 0.449219 C 10.070312 0.449219 0.402344 10.164062 0.402344 22.179688 C 0.402344 34.171875 10.070312 43.910156 22.035156 43.910156 C 33.972656 43.910156 43.667969 34.195312 43.667969 22.179688 L 38.269531 22.179688 C 38.246094 31.160156 30.972656 38.464844 22.035156 38.464844 Z M 22.035156 38.464844 "></path><path style=" stroke:none;fill-rule:nonzero;fill:url(#linear1);" d="M 28.445312 30.921875 C 26.648438 32.257812 24.429688 33.042969 22.035156 33.042969 C 16.066406 33.042969 11.21875 28.175781 11.21875 22.179688 C 11.21875 16.160156 16.039062 11.316406 22.035156 11.316406 C 28.003906 11.316406 32.851562 16.183594 32.851562 22.179688 L 38.246094 22.179688 C 38.246094 13.171875 30.972656 5.894531 22.035156 5.894531 C 13.066406 5.894531 5.820312 13.199219 5.820312 22.179688 C 5.820312 31.1875 13.09375 38.464844 22.035156 38.464844 C 25.628906 38.464844 28.964844 37.285156 31.652344 35.296875 Z M 28.445312 30.921875 "></path><path style=" stroke:none;fill-rule:nonzero;fill:url(#linear2);" d="M 22.035156 27.597656 C 19.035156 27.597656 16.636719 25.164062 16.636719 22.179688 C 16.636719 19.167969 19.0625 16.761719 22.035156 16.761719 C 23.234375 16.761719 24.351562 17.152344 25.238281 17.808594 L 28.445312 13.4375 C 26.648438 12.101562 24.429688 11.316406 22.035156 11.316406 C 16.039062 11.316406 11.21875 16.160156 11.21875 22.179688 C 11.21875 28.175781 16.066406 33.042969 22.035156 33.042969 C 28.003906 33.042969 32.851562 28.175781 32.851562 22.179688 L 27.453125 22.179688 C 27.429688 25.164062 25.003906 27.597656 22.035156 27.597656 Z M 22.035156 27.597656 "></path></g></svg>