<svg xmlns="http://www.w3.org/2000/svg" xmlns:xlink="http://www.w3.org/1999/xlink" width="113px" height="45px" viewBox="0 0 133 45"><g id="surface1"><path style=" stroke:none;fill-rule:nonzero;fill:rgb(91.764706%,26.27451%,20.784314%);fill-opacity:1;" d="M 56.597656 23.078125 C 56.597656 29.324219 51.714844 33.925781 45.71875 33.925781 C 39.722656 33.925781 34.839844 29.324219 34.839844 23.078125 C 34.839844 16.785156 39.722656 12.226562 45.71875 12.226562 C 51.714844 12.226562 56.597656 16.785156 56.597656 23.078125 Z M 51.835938 23.078125 C 51.835938 19.175781 49.003906 16.503906 45.71875 16.503906 C 42.433594 16.503906 39.601562 19.175781 39.601562 23.078125 C 39.601562 26.941406 42.433594 29.652344 45.71875 29.652344 C 49.003906 29.652344 51.835938 26.9375 51.835938 23.078125 Z M 51.835938 23.078125 "></path><path style=" stroke:none;fill-rule:nonzero;fill:rgb(98.431373%,73.72549%,1.960784%);fill-opacity:1;" d="M 80.070312 23.078125 C 80.070312 29.324219 75.183594 33.925781 69.1875 33.925781 C 63.195312 33.925781 58.308594 29.324219 58.308594 23.078125 C 58.308594 16.792969 63.195312 12.226562 69.1875 12.226562 C 75.183594 12.226562 80.070312 16.785156 80.070312 23.078125 Z M 75.304688 23.078125 C 75.304688 19.175781 72.476562 16.503906 69.1875 16.503906 C 65.902344 16.503906 63.074219 19.175781 63.074219 23.078125 C 63.074219 26.941406 65.902344 29.652344 69.1875 29.652344 C 72.476562 29.652344 75.304688 26.9375 75.304688 23.078125 Z M 75.304688 23.078125 "></path><path style=" stroke:none;fill-rule:nonzero;fill:rgb(25.882353%,52.156863%,95.686275%);fill-opacity:1;" d="M 102.5625 12.882812 L 102.5625 32.359375 C 102.5625 40.371094 97.839844 43.644531 92.253906 43.644531 C 86.996094 43.644531 83.835938 40.128906 82.640625 37.253906 L 86.789062 35.527344 C 87.527344 37.292969 89.335938 39.375 92.25 39.375 C 95.824219 39.375 98.039062 37.167969 98.039062 33.015625 L 98.039062 31.457031 L 97.871094 31.457031 C 96.804688 32.773438 94.753906 33.921875 92.160156 33.921875 C 86.738281 33.921875 81.769531 29.195312 81.769531 23.117188 C 81.769531 16.992188 86.738281 12.226562 92.160156 12.226562 C 94.746094 12.226562 96.800781 13.378906 97.871094 14.65625 L 98.039062 14.65625 L 98.039062 12.886719 L 102.5625 12.886719 Z M 98.375 23.117188 C 98.375 19.296875 95.828125 16.503906 92.585938 16.503906 C 89.300781 16.503906 86.546875 19.296875 86.546875 23.117188 C 86.546875 26.898438 89.300781 29.652344 92.585938 29.652344 C 95.828125 29.652344 98.375 26.898438 98.375 23.117188 Z M 98.375 23.117188 "></path><path style=" stroke:none;fill-rule:nonzero;fill:rgb(20.392157%,65.882353%,32.54902%);fill-opacity:1;" d="M 110.019531 1.46875 L 110.019531 33.261719 L 105.375 33.261719 L 105.375 1.46875 Z M 110.019531 1.46875 "></path><path style=" stroke:none;fill-rule:nonzero;fill:rgb(91.764706%,26.27451%,20.784314%);fill-opacity:1;" d="M 128.121094 26.648438 L 131.816406 29.113281 C 130.625 30.878906 127.75 33.921875 122.78125 33.921875 C 116.621094 33.921875 112.019531 29.15625 112.019531 23.074219 C 112.019531 16.621094 116.660156 12.222656 122.246094 12.222656 C 127.875 12.222656 130.628906 16.703125 131.527344 19.125 L 132.023438 20.359375 L 117.523438 26.363281 C 118.632812 28.539062 120.359375 29.652344 122.78125 29.652344 C 125.207031 29.652344 126.886719 28.457031 128.121094 26.648438 Z M 116.742188 22.746094 L 126.433594 18.71875 C 125.898438 17.363281 124.296875 16.421875 122.410156 16.421875 C 119.988281 16.421875 116.621094 18.558594 116.742188 22.746094 Z M 116.742188 22.746094 "></path><path style=" stroke:none;fill-rule:nonzero;fill:rgb(25.882353%,52.156863%,95.686275%);fill-opacity:1;" d="M 17.253906 20.253906 L 17.253906 15.652344 L 32.761719 15.652344 C 32.914062 16.453125 32.992188 17.402344 32.992188 18.429688 C 32.992188 21.882812 32.046875 26.152344 29.003906 29.195312 C 26.046875 32.277344 22.269531 33.921875 17.261719 33.921875 C 7.980469 33.921875 0.175781 26.359375 0.175781 17.074219 C 0.175781 7.792969 7.980469 0.230469 17.261719 0.230469 C 22.394531 0.230469 26.050781 2.246094 28.800781 4.871094 L 25.554688 8.121094 C 23.582031 6.269531 20.914062 4.832031 17.253906 4.832031 C 10.480469 4.832031 5.179688 10.296875 5.179688 17.074219 C 5.179688 23.855469 10.480469 29.320312 17.253906 29.320312 C 21.652344 29.320312 24.15625 27.550781 25.757812 25.949219 C 27.058594 24.648438 27.914062 22.789062 28.253906 20.25 Z M 17.253906 20.253906 "></path></g></svg>