<svg xmlns="http://www.w3.org/2000/svg" xmlns:xlink="http://www.w3.org/1999/xlink" width="113px" height="45px" viewBox="0 0 154 45"><g id="surface1"><path style=" stroke:none;fill-rule:evenodd;fill:rgb(96.470588%,79.215686%,26.666667%);fill-opacity:1;" d="M 18.382812 0.0546875 C 14.191406 0 10.050781 0 5.910156 0 C 4.90625 8.3125 3.78125 16.613281 2.65625 24.910156 C 1.75 31.605469 0.84375 38.296875 0 45 L 12.53125 45 C 14.449219 30.046875 18.382812 0.0546875 18.382812 0.0546875 Z M 27.898438 0 C 35.898438 0 43.898438 0 51.957031 0.0546875 C 52.011719 15.074219 52.011719 30.035156 52.011719 45 C 47.753906 45 43.496094 45 39.179688 44.945312 C 39.125 31.097656 39.125 17.308594 39.125 3.519531 C 37.675781 5.730469 36.324219 7.953125 34.996094 10.1875 C 32.980469 13.570312 30.976562 16.960938 28.984375 20.355469 C 28.882812 20.527344 28.847656 20.808594 28.90625 21.003906 C 29.5 22.96875 30.101562 24.9375 30.707031 26.902344 C 31.070312 28.085938 31.433594 29.269531 31.796875 30.449219 C 32.941406 34.207031 34.085938 37.96875 35.222656 41.730469 C 35.449219 42.472656 35.660156 43.222656 35.875 43.972656 C 35.972656 44.316406 36.070312 44.65625 36.171875 45 C 31.480469 45 26.789062 45 22.042969 44.953125 C 21.671875 43.691406 21.347656 42.484375 21.046875 41.269531 C 20.589844 39.421875 20.132812 37.570312 19.675781 35.722656 C 18.511719 31.003906 17.347656 26.289062 16.164062 21.574219 C 16.042969 21.097656 16.132812 20.742188 16.339844 20.367188 C 16.46875 20.132812 16.605469 19.902344 16.746094 19.675781 C 16.859375 19.492188 16.96875 19.308594 17.074219 19.121094 C 17.488281 18.394531 17.902344 17.667969 18.3125 16.9375 C 18.890625 15.917969 19.464844 14.898438 20.046875 13.882812 C 20.664062 12.804688 21.285156 11.730469 21.90625 10.65625 L 21.910156 10.65625 L 21.910156 10.652344 C 22.445312 9.726562 22.984375 8.796875 23.515625 7.863281 C 24.5625 6.039062 25.609375 4.214844 26.640625 2.382812 C 26.941406 1.84375 27.226562 1.296875 27.507812 0.746094 C 27.636719 0.496094 27.765625 0.25 27.898438 0 Z M 121.515625 0 C 127.035156 0 132.554688 0 138.097656 0.0429688 C 138.527344 0.175781 138.929688 0.296875 139.339844 0.351562 C 141.664062 0.660156 143.894531 1.265625 145.980469 2.371094 C 148.101562 3.5 149.609375 5.15625 150.367188 7.472656 C 151.097656 9.714844 151.128906 11.984375 150.71875 14.285156 C 150.140625 17.523438 148.054688 19.46875 145.226562 20.777344 C 145.039062 20.863281 144.847656 20.941406 144.695312 21.007812 L 144.691406 21.007812 C 144.628906 21.03125 144.574219 21.054688 144.523438 21.078125 C 144.859375 21.230469 145.199219 21.378906 145.539062 21.527344 C 146.285156 21.851562 147.035156 22.175781 147.742188 22.570312 C 150.320312 24.003906 152.007812 26.113281 152.378906 29.140625 C 152.382812 29.1875 152.449219 29.230469 152.515625 29.269531 C 152.546875 29.289062 152.578125 29.308594 152.605469 29.328125 C 152.605469 30.953125 152.605469 32.578125 152.554688 34.261719 C 152.417969 34.699219 152.328125 35.078125 152.25 35.460938 C 151.824219 37.503906 151.019531 39.375 149.542969 40.875 C 148.1875 42.25 146.511719 43.15625 144.675781 43.675781 C 143.597656 43.984375 142.496094 44.207031 141.390625 44.425781 C 140.835938 44.539062 140.285156 44.648438 139.734375 44.769531 C 139.667969 44.785156 139.613281 44.851562 139.558594 44.914062 C 139.535156 44.945312 139.507812 44.976562 139.484375 45 L 139.480469 45 C 133.53125 45 127.578125 45 121.570312 44.945312 C 121.515625 29.925781 121.515625 14.964844 121.515625 0 Z M 133.808594 28.316406 L 133.808594 35.746094 C 134.25 35.691406 134.683594 35.648438 135.109375 35.605469 L 135.113281 35.605469 C 136.058594 35.507812 136.976562 35.414062 137.867188 35.21875 C 139.359375 34.886719 140.464844 34.003906 140.667969 32.355469 C 140.769531 31.519531 140.816406 30.664062 140.769531 29.824219 C 140.683594 28.355469 140.019531 27.191406 138.691406 26.492188 C 137.398438 25.8125 136.019531 25.847656 134.613281 25.886719 C 134.347656 25.894531 134.078125 25.898438 133.808594 25.902344 Z M 133.808594 14.78125 L 133.808594 17.386719 C 134.117188 17.367188 134.414062 17.355469 134.710938 17.34375 C 135.351562 17.320312 135.96875 17.292969 136.570312 17.199219 C 137.707031 17.015625 138.664062 16.484375 139.070312 15.308594 C 139.457031 14.179688 139.550781 13.023438 139.289062 11.835938 C 139.097656 10.957031 138.648438 10.273438 137.890625 9.855469 C 136.632812 9.164062 135.246094 9.09375 133.808594 9.160156 Z M 95.273438 34.757812 C 95.273438 23.132812 95.273438 11.566406 95.21875 0 L 82.507812 0 C 82.507812 14.964844 82.507812 29.925781 82.5625 44.945312 C 90.972656 45 99.328125 45 107.65625 44.953125 C 108.050781 41.546875 108.472656 38.1875 108.90625 34.757812 Z M 66.730469 0 C 66.785156 11.566406 66.785156 23.132812 66.785156 34.757812 L 80.417969 34.757812 C 79.984375 38.1875 79.5625 41.546875 79.171875 44.953125 C 70.84375 45 62.488281 45 54.074219 44.945312 C 54.019531 29.925781 54.019531 14.964844 54.019531 0 Z M 66.730469 0 "></path></g></svg>